<?xml version="1.0"?>
<svg xmlns="http://www.w3.org/2000/svg" id="Layer_1" enable-background="new 0 0 512.058 512.058" height="512px" viewBox="0 0 512.058 512.058" width="512px"><g><path d="m504.058 199.99c-3.911 0-7.167 2.807-7.862 6.517-20.257 91.913-123.668 157.679-221.125 117.46-4.084-1.687-8.762.258-10.447 4.343-1.685 4.084.26 8.761 4.344 10.447 87.651 36.17 184.754-4.964 227.091-85.81 0 140.926-111.37 243.053-240 243.053-132.643 0-240-107.337-240-240 0-131.778 105.691-237.786 235.876-239.965-102.292 55.569-127.095 206.855-33.414 290.965 3.288 2.952 8.346 2.678 11.298-.608 2.951-3.288 2.679-8.346-.608-11.297-97.612-87.639-52.252-252.642 68.335-279.23 3.713-.693 6.522-3.95 6.522-7.864 0-4.418-3.582-8-8-8h-40.011c-68.381-.001-132.668 26.627-181.02 74.978-100.042 100.041-100.057 261.985 0 362.041 100.042 100.042 261.984 100.057 362.041 0 48.352-48.351 74.98-112.638 74.98-181.02v-48.01c0-4.418-3.582-8-8-8z" data-original="#000000" class="active-path" data-old_color="#000000" fill="#050C38"/><path d="m360.026 112c.177.002 12.593.199 24.573 7.242 15.565 9.151 23.458 25.555 23.458 48.758 0 4.419 3.582 8 8 8s8-3.581 8-8c0-23.203 7.893-39.607 23.458-48.758 12.006-7.058 24.45-7.241 24.542-7.242 4.415 0 8-3.579 8-8 0-4.408-3.564-7.983-7.969-8-.177-.002-12.593-.199-24.573-7.242-15.565-9.151-23.457-25.555-23.457-48.758 0-4.418-3.582-8-8-8s-8 3.582-8 8c0 23.203-7.893 39.607-23.458 48.758-12.006 7.058-24.45 7.241-24.542 7.242-4.634.05-8 3.745-8 8 0 4.408 3.564 7.983 7.968 8zm56.032-34.376c5.866 11.642 14.822 20.515 25.951 26.376-11.129 5.861-20.085 14.733-25.951 26.376-5.866-11.642-14.822-20.515-25.951-26.376 11.128-5.861 20.085-14.733 25.951-26.376z" data-original="#000000" class="active-path" data-old_color="#000000" fill="#050C38"/><path d="m296.058 152c0 23.203-7.893 39.607-23.458 48.758-12.006 7.058-24.45 7.241-24.542 7.242-4.634.05-8 3.745-8 8 0 4.408 3.564 7.983 7.969 8 .177.002 12.593.199 24.573 7.242 15.565 9.151 23.458 25.555 23.458 48.758 0 4.418 3.582 8 8 8s8-3.582 8-8c0-23.203 7.893-39.607 23.458-48.758 6.717-3.949 15.195-6.706 24.658-7.243 4.364-.062 7.884-3.62 7.884-7.999 0-4.408-3.564-7.983-7.969-8-.177-.002-12.593-.199-24.573-7.242-15.565-9.151-23.458-25.555-23.458-48.758 0-4.419-3.582-8-8-8s-8 3.581-8 8zm33.951 64c-11.129 5.861-20.085 14.733-25.951 26.376-5.866-11.642-14.822-20.515-25.951-26.376 11.129-5.861 20.085-14.733 25.951-26.376 5.865 11.642 14.822 20.515 25.951 26.376z" data-original="#000000" class="active-path" data-old_color="#000000" fill="#050C38"/><path d="m242.397 314.34c-3.114 3.114-3.117 8.203 0 11.32 3.113 3.113 8.201 3.119 11.32 0 3.113-3.115 3.115-8.203 0-11.32-3.113-3.114-8.203-3.117-11.32 0z" data-original="#000000" class="active-path" data-old_color="#000000" fill="#050C38"/></g> </svg>
