<?xml version="1.0"?>
<svg xmlns="http://www.w3.org/2000/svg" xmlns:xlink="http://www.w3.org/1999/xlink" version="1.1" id="Capa_1" x="0px" y="0px" viewBox="0 0 463.85 463.85" style="enable-background:new 0 0 463.85 463.85;" xml:space="preserve" width="512px" height="512px"><g><g>
	<g>
		<path d="M238.165,2.85c-3.032-3.8-9.456-3.8-12.488,0c-6.592,8.232-161.752,202.856-161.752,293c0,92.632,75.368,168,168,168    s168-75.368,168-168C399.925,205.706,244.765,11.082,238.165,2.85z M231.925,447.85c-83.816,0-152-68.184-152-152    c0-74.816,122.648-237.248,152-275.04c29.352,37.784,152,200.208,152,275.04C383.925,379.666,315.741,447.85,231.925,447.85z" data-original="#000000" class="active-path" data-old_color="#000000" fill="#050C38"/>
	</g>
</g><g>
	<g>
		<path d="M231.925,383.85c-48.52,0-88-39.48-88-88c0-4.424-3.576-8-8-8s-8,3.576-8,8c0,57.344,46.656,104,104,104    c4.424,0,8-3.576,8-8S236.349,383.85,231.925,383.85z" data-original="#000000" class="active-path" data-old_color="#000000" fill="#050C38"/>
	</g>
</g><g>
	<g>
		<path d="M327.925,255.85c-22.056,0-40,17.944-40,40c0,22.056,17.944,40,40,40c22.056,0,40-17.944,40-40    C367.925,273.794,349.981,255.85,327.925,255.85z M327.925,319.85c-13.232,0-24-10.768-24-24s10.768-24,24-24s24,10.768,24,24    S341.157,319.85,327.925,319.85z" data-original="#000000" class="active-path" data-old_color="#000000" fill="#050C38"/>
	</g>
</g></g> </svg>
