<?xml version="1.0"?>
<svg xmlns="http://www.w3.org/2000/svg" xmlns:xlink="http://www.w3.org/1999/xlink" version="1.1" id="Capa_1" x="0px" y="0px" viewBox="0 0 464 464" style="enable-background:new 0 0 464 464;" xml:space="preserve" width="512px" height="512px"><g><g>
	<g>
		<path d="M437.2,264.936C454.472,241.632,464,213.224,464,184c0-74.992-61.008-136-136-136c-47.208,0-91.04,24.656-115.744,64.616    C208.04,112.248,203.952,112,200,112c-74.992,0-136,61.008-136,136c0,7.88,0.768,16,2.288,24.224C29.24,275.144,0,306.216,0,344    c0,39.704,32.296,72,72,72h320c0.528,0,1.064-0.056,1.576-0.16c19.448-3.92,37.32-14.952,50.336-31.08    C456.864,368.648,464,348.496,464,328C464,303.968,454.272,281.424,437.2,264.936z M328,64c66.168,0,120,53.832,120,120    c0,25.544-8.16,50.432-23.112,70.864c-0.144-0.096-0.296-0.176-0.432-0.264c-0.488-0.32-1-0.608-1.488-0.92    c-1.816-1.152-3.672-2.248-5.56-3.256c-0.768-0.416-1.552-0.8-2.336-1.192c-1.752-0.872-3.536-1.688-5.336-2.44    c-0.736-0.312-1.472-0.632-2.216-0.92c-2.52-0.976-5.072-1.864-7.672-2.592C397.408,205.776,366.12,176,328,176    c-2.08,0-4.192,0.12-6.336,0.32c-1.584,0.136-3.144,0.376-4.696,0.616c-0.328,0.048-0.64,0.072-0.968,0.128    c-2.552-4.16-5.344-8.144-8.304-11.976c-0.968-1.256-2.048-2.4-3.056-3.616c-2.08-2.504-4.168-4.992-6.416-7.336    c-1.288-1.344-2.672-2.592-4.016-3.88c-2.136-2.048-4.28-4.08-6.536-5.984c-1.496-1.264-3.048-2.44-4.592-3.64    c-2.272-1.752-4.56-3.464-6.936-5.072c-1.64-1.112-3.304-2.168-4.984-3.208c-2.44-1.504-4.912-2.928-7.44-4.272    c-1.728-0.92-3.464-1.824-5.232-2.672c-2.632-1.264-5.32-2.408-8.032-3.496c-1.768-0.712-3.52-1.44-5.32-2.08    c-2.872-1.016-5.8-1.872-8.744-2.696c-1.736-0.488-3.44-1.032-5.2-1.448c-0.536-0.128-1.056-0.32-1.6-0.448    C251.904,83.376,288.648,64,328,64z M431.456,374.736C420.96,387.728,406.68,396.68,391.184,400H72c-30.872,0-56-25.128-56-56    s25.128-56,56-56c0.768,0,1.504,0.064,2.256,0.128l1.504,0.104c0.12,0.008,0.224-0.024,0.336-0.016    C105.064,290.328,128,314.512,128,344c0,4.424,3.576,8,8,8s8-3.576,8-8c0-36.032-26.624-65.872-61.216-71.104    C80.968,264.4,80,256.04,80,248c0-66.168,53.832-120,120-120c4.912,0,10,0.32,15.448,0.968c34.416,4.48,65.208,24.04,84.36,52.792    C274.08,192.752,256,218.304,256,248c0,4.424,3.576,8,8,8s8-3.576,8-8c0-26.128,18.024-48.08,42.272-54.224    c2.272-0.56,4.52-0.992,6.72-1.288c0.072-0.008,0.136-0.024,0.208-0.032c2.32-0.304,4.592-0.456,6.8-0.456    c30.872,0,56,25.128,55.984,56.2c-0.032,0.456-0.064,0.904-0.064,1.4c0,3.824,2.696,7.104,6.448,7.84    c3.2,0.64,6.344,1.568,9.44,2.656c7.728,2.72,15.072,6.752,21.56,12.04C438.288,285.848,448,306.208,448,328    C448,344.856,442.12,361.464,431.456,374.736z" data-original="#000000" class="active-path" data-old_color="#000000" fill="#050C38"/>
	</g>
</g></g> </svg>
