<?xml version="1.0"?>
<svg xmlns="http://www.w3.org/2000/svg" id="Layer_1" enable-background="new 0 0 512.035 512.035" height="512px" viewBox="0 0 512.035 512.035" width="512px"><g><path d="m443.637 252.855c-25.196-86.926-138.057-109.482-194.836-39.078-18.043-3.848-37.109-1.421-53.879 7.401 5.928-14.712 20.371-25.161 37.113-25.161 4.418 0 8-3.581 8-8 0-4.418-3.582-8-8-8-22.056 0-40-17.944-40-40 0-4.418-3.582-8-8-8s-8 3.582-8 8c0 22.056-17.944 40-40 40-4.418 0-8 3.582-8 8 0 4.419 3.582 8 8 8 21.631 0 39.429 17.427 39.969 38.971-10.447 10.267-18.101 23.365-21.688 38.046-54.738-15.31-77.633-82.299-39.099-128.676 12.192-14.674 28.69-24.798 46.453-28.509 4.014-.838 6.743-4.575 6.322-8.653-.422-4.078-3.858-7.178-7.958-7.178h-24c-114.113 0-176.619 132.321-106.547 220.53 17.697 22.277 42.194 38.589 69.381 46.311 8.063 26.122 32.432 45.159 61.166 45.159h88c4.418 0 8-3.581 8-8 0-4.418-3.582-8-8-8h-88c-26.468 0-48-21.533-48-48s21.532-48 48-48c4.418 0 8-3.581 8-8 0-35.29 28.71-64 64-64 35.786 0 64 29.266 64 64 0 4.419 3.582 8 8 8s8-3.581 8-8c0-31.505-18.765-59.95-46.817-72.79 52.765-57.536 146.992-31.064 164.288 42.804.798 3.41 3.721 5.904 7.214 6.156 33.261 2.398 59.315 30.436 59.315 63.831 0 35.29-28.71 64-64 64h-136c-4.418 0-8 3.582-8 8 0 4.419 3.582 8 8 8h136c44.112 0 80-35.888 80-80 .001-39.796-29.603-73.504-68.397-79.164zm-278.818-64.816c7.863-4.731 14.479-11.342 19.216-19.202 4.738 7.861 11.352 14.471 19.218 19.203-7.857 4.745-14.475 11.365-19.216 19.229-4.741-7.865-11.358-14.485-19.218-19.23zm-68.755 161.145c-47.653-16.722-80.029-61.699-80.029-113.167 0-61.104 45.906-111.687 105.041-119.072-64.729 47.462-49.383 143.471 22.133 169.325-27.298 7.447-47.673 32.665-47.145 62.914z" data-original="#000000" class="active-path" data-old_color="#000000" fill="#050C38"/><path d="m272.035 396.017c-4.417 0-8 3.577-8 8 0 4.415 3.575 8 8 8 4.417 0 8-3.578 8-8 0-4.417-3.577-8-8-8z" data-original="#000000" class="active-path" data-old_color="#000000" fill="#050C38"/></g> </svg>
