<?xml version="1.0"?>
<svg xmlns="http://www.w3.org/2000/svg" xmlns:xlink="http://www.w3.org/1999/xlink" version="1.1" id="Capa_1" x="0px" y="0px" viewBox="0 0 368.004 368.004" style="enable-background:new 0 0 368.004 368.004;" xml:space="preserve" width="512px" height="512px"><g><g>
	<g>
		<path d="M331.314,192.002h28.688c4.424,0,8-3.584,8-8c0-4.416-3.576-8-8-8h-28.688l34.344-34.344    c3.128-3.128,3.128-8.184,0-11.312s-8.184-3.128-11.312,0l-45.656,45.656H203.314l64-64h44.688c4.424,0,8-3.584,8-8s-3.576-8-8-8    h-28.688l34.344-34.344c3.128-3.128,3.128-8.184,0-11.312s-8.184-3.128-11.312,0L272.002,84.69V56.002c0-4.416-3.576-8-8-8    s-8,3.584-8,8v44.688l-64,64v-60.688v-44.68l45.656-45.656c3.128-3.128,3.128-8.184,0-11.312s-8.184-3.128-11.312,0L192.002,36.69    V8.002c0-4.416-3.576-8-8-8s-8,3.584-8,8V36.69L141.658,2.346c-3.128-3.128-8.184-3.128-11.312,0s-3.128,8.184,0,11.312    l45.656,45.656v44.688v60.688l-64-64V56.002c0-4.416-3.576-8-8-8s-8,3.584-8,8V84.69L61.658,50.346    c-3.128-3.128-8.184-3.128-11.312,0s-3.128,8.184,0,11.312L84.69,96.002H56.002c-4.424,0-8,3.584-8,8s3.576,8,8,8h44.688l64,64    H59.314l-45.656-45.656c-3.128-3.128-8.184-3.128-11.312,0s-3.128,8.184,0,11.312l34.344,34.344H8.002c-4.424,0-8,3.584-8,8    s3.576,8,8,8H36.69L2.346,226.346c-3.128,3.128-3.128,8.184,0,11.312c1.56,1.56,3.608,2.344,5.656,2.344s4.096-0.784,5.656-2.344    l45.656-45.656H164.69l-64,64H56.002c-4.424,0-8,3.584-8,8c0,4.416,3.576,8,8,8H84.69l-34.344,34.344    c-3.128,3.128-3.128,8.184,0,11.312c1.56,1.56,3.608,2.344,5.656,2.344c2.048,0,4.096-0.784,5.656-2.344l34.344-34.344v28.688    c0,4.416,3.576,8,8,8s8-3.584,8-8v-44.688l64-64V308.69l-45.656,45.656c-3.128,3.128-3.128,8.184,0,11.312    c3.128,3.128,8.184,3.128,11.312,0l34.344-34.344v28.688c0,4.416,3.576,8,8,8s8-3.584,8-8v-28.688l34.344,34.344    c1.56,1.56,3.608,2.344,5.656,2.344c2.048,0,4.096-0.784,5.656-2.344c3.128-3.128,3.128-8.184,0-11.312l-45.656-45.656V203.314    l64,64v44.688c0,4.416,3.576,8,8,8s8-3.584,8-8v-28.688l34.344,34.344c1.56,1.56,3.608,2.344,5.656,2.344    c2.048,0,4.096-0.784,5.656-2.344c3.128-3.128,3.128-8.184,0-11.312l-34.344-34.344h28.688c4.424,0,8-3.584,8-8    c0-4.416-3.576-8-8-8h-44.688l-64-64H308.69l45.656,45.656c1.56,1.56,3.608,2.344,5.656,2.344c2.048,0,4.096-0.784,5.656-2.344    c3.128-3.128,3.128-8.184,0-11.312L331.314,192.002z" data-original="#000000" class="active-path" data-old_color="#000000" fill="#050C38"/>
	</g>
</g></g> </svg>
